# xmcd
# 
# Track frame offsets:
#     150
#     10148
#     20573
#     32995
#     43978
#     54060
#     65005
#     76085
#     85900
#     96630
#     106723
#     118943
#     128760
#     140403
#     152685
#     163900
#     175433
#     186158
#     196375
#     207405
#     218415
#     228875
#     238898
#     252280
# 
# Disc length: 3479
# 
# Revision: 5
# Processed by: cddbd v1.5.2PL0 Copyright (c) Steve Scherf et al.
# Submitted via: fre:ac v1.0.31
# 
DISCID=510d9518
DTITLE=Columbia Blues - The Best Of Smiley Lewis: I Hear You Knocking
DYEAR=1992
DGENRE=Blues
TTITLE0=Tee Nah Nah
TTITLE1=Dirty People
TTITLE2=Bee's Boogie
TTITLE3=The Bells Are Ringing
TTITLE4=Lillie Mae
TTITLE5=Gumbo Blues
TTITLE6=Ain't Gonna Do It
TTITLE7=Caldonia's Party
TTITLE8=Big Mamou
TTITLE9=Down The Road
TTITLE10=Blue Monday
TTITLE11=Jail Bird
TTITLE12=Real Gone Lover
TTITLE13=I Hear You Knocking
TTITLE14=Bumpity Bump
TTITLE15=Queen Of Hearts
TTITLE16=Come On
TTITLE17=Nothing But The Blues
TTITLE18=One Night
TTITLE19=She's Got Me Hook, Line and Sinker
TTITLE20=Please Listen To Me
TTITLE21=Rootin' And Tootin'
TTITLE22=Down Yonder (We Go Ballin')
TTITLE23=Shame, Shame, Shame
EXTD=EMI, CDP-598824
EXTT0=
EXTT1=
EXTT2=
EXTT3=
EXTT4=
EXTT5=
EXTT6=
EXTT7=
EXTT8=
EXTT9=
EXTT10=
EXTT11=
EXTT12=
EXTT13=
EXTT14=
EXTT15=
EXTT16=
EXTT17=
EXTT18=
EXTT19=
EXTT20=
EXTT21=
EXTT22=
EXTT23=
PLAYORDER=
